<svg width="728" height="727" xmlns="http://www.w3.org/2000/svg" xmlns:xlink="http://www.w3.org/1999/xlink" xml:space="preserve" overflow="hidden"><defs><clipPath id="clip0"><rect x="1504" y="894" width="728" height="727"/></clipPath><clipPath id="clip1"><path d="M1508.94 1257.5 1868.33 898.111 2227.72 1257.5 1868.33 1616.89Z" fill-rule="evenodd" clip-rule="evenodd"/></clipPath><clipPath id="clip2"><path d="M1508.94 1257.5 1868.33 898.111 2227.72 1257.5 1868.33 1616.89Z" fill-rule="evenodd" clip-rule="evenodd"/></clipPath><clipPath id="clip3"><path d="M1508.94 1257.5 1868.33 898.111 2227.72 1257.5 1868.33 1616.89Z" fill-rule="evenodd" clip-rule="evenodd"/></clipPath></defs><g clip-path="url(#clip0)" transform="translate(-1504 -894)"><path d="M1518 1257.5C1518 1064.48 1674.7 908 1868 908 2061.3 908 2218 1064.48 2218 1257.5 2218 1450.52 2061.3 1607 1868 1607 1674.7 1607 1518 1450.52 1518 1257.5Z" stroke="#0070C0" stroke-width="27.5" stroke-miterlimit="8" fill="none" fill-rule="evenodd"/><g clip-path="url(#clip1)"><g clip-path="url(#clip2)"><g clip-path="url(#clip3)"><path d="M1860.85 1369.81C1877.39 1386.35 1877.39 1413.17 1860.85 1429.71 1844.31 1446.25 1817.49 1446.25 1800.95 1429.71 1784.41 1413.17 1784.41 1386.35 1800.95 1369.81 1817.49 1353.27 1844.31 1353.27 1860.85 1369.81Z" fill="#0070C0"/><path d="M2040.54 1190.11C2057.08 1206.66 2057.08 1233.47 2040.54 1250.01 2024 1266.55 1997.18 1266.55 1980.64 1250.01 1964.1 1233.47 1964.1 1206.65 1980.64 1190.11 1997.18 1173.57 2024 1173.57 2040.54 1190.11Z" fill="#0070C0"/><path d="M1812.18 1268.73 1767.26 1223.81 1818.54 1172.52C1822.66 1168.4 1827.9 1166.16 1833.52 1166.53L1914.38 1166.53 1812.18 1268.73ZM1797.2 1283.71 1702.49 1378.42 1702.49 1297.56C1702.49 1291.57 1704.74 1286.33 1708.48 1282.58L1752.28 1238.78 1797.2 1283.71ZM1973.16 1107.75 1942.08 1138.83C1937.96 1142.94 1932.72 1145.19 1927.11 1144.82L1833.14 1145.19C1821.91 1145.19 1811.43 1149.68 1803.19 1157.92L1693.51 1267.61C1685.64 1275.47 1680.78 1286.33 1680.78 1297.56L1681.15 1390.77C1681.15 1396.76 1683.4 1402 1687.52 1406.12L1726.08 1444.68C1742.55 1461.15 1769.5 1461.15 1785.97 1444.68L1789.72 1440.94C1766.88 1418.1 1766.88 1381.41 1789.72 1358.58 1812.55 1335.74 1849.24 1335.74 1872.08 1358.58L1969.41 1261.24C1946.58 1238.41 1946.58 1201.72 1969.41 1178.88 1992.25 1156.05 2028.94 1156.05 2051.77 1178.88L2070.49 1160.17C2078.73 1151.93 2078.73 1138.45 2070.49 1130.22L2048.03 1107.75C2027.44 1087.16 1993.74 1087.16 1973.16 1107.75Z" fill="#0070C0"/></g></g></g></g></svg>